<?xml version="1.0" encoding="UTF-8"?>
<svg id="Layer_2" data-name="Layer 2" xmlns="http://www.w3.org/2000/svg" width="58.6474" height="98.1548" viewBox="0 0 58.6474 98.1548">
  <g id="svg1">
    <path d="m31.8442,97.6548h7.2353c-1.2187-3.4826-2.3631-8.6254-.4706-13.7059,2.6175-7.0266,8.6712-7.5637,13.5294-12.9412,9.9838-11.0508,6.0815-32.7609-1.2353-45.8824-5.6471-10.1271-13.914-15.0861-18.2488-17.733C23.6196,1.8758,13.4032-.8099,12.256,1.1254c-.7525,1.2694,2.9998,3.5104,2.8235,7.5882-.1517,3.5117-3.1072,5.8458-4.7902,7.456C3.9828,22.2039,2.2928,30.755,1.1383,36.596c-1.9772,10.0043.5409,23.6099,8.9277,32.0556,8.6942,8.7552,18.4851,6.8348,22.2353,15.3291,2.179,4.9355.8034,10.2898-.4571,13.6741Z" style="fill: #fff; stroke: #000; stroke-miterlimit: 10;"/>
  </g>
</svg>