<?xml version="1.0" encoding="UTF-8"?>
<svg id="Layer_2" data-name="Layer 2" xmlns="http://www.w3.org/2000/svg" width="6.0059" height="10.1004" viewBox="0 0 6.0059 10.1004">
  <g id="svg1">
    <path d="m4.3442,9.7004C6.8893,7.1554,6.2882.9629,4.0442.1004,3.6365-.0563,2.4326-.3208,0,1.8961c.2661,3.7058.6412,4.508.9412,4.5294.3538.0253.8033-.8894.9412-1.5294.0531-.2463.1317-.6365-.0588-1-.0936-.1786-.1864-.2252-.2872-.3499-.3576-.4423-.3457-1.271-.0658-1.6501.5958-.8069,2.5679-.7424,3.4706.2353.7017.76.5691,1.8544.3529,3.3529-.1455,1.0083-.4814,2.4999-1.3499,4.216,0,0-.2.3-.1.4.1-.1.4-.3.5-.4Z" style="stroke-width: 0px;"/>
  </g>
</svg>