<?xml version="1.0" encoding="UTF-8"?>
<svg id="Layer_2" data-name="Layer 2" xmlns="http://www.w3.org/2000/svg" width="10.9593" height="14.5216" viewBox="0 0 10.9593 14.5216">
  <g id="svg1">
    <path d="m9.7342,14.5168c.2085.055.4853-.3715.653-.6299.8029-1.2373.5822-2.6594.3971-3.75-.1999-1.1776-.3587-2.1134-1.1029-3.0441-.6227-.7788-1.8834-1.8391-2.8235-1.5-.4271.1541-.4028.4579-.8824.8382-1.0034.7957-3.0076.9708-3.7059-.0441-.5359-.7789-.2409-2.1688.4657-2.5989.44-.2678.714.0346,1.549-.1511.1331-.0296,1.1718-.2757,1.8824-1.1765C6.8977,1.5337,7.0659.1874,6.7549.0192c-.1868-.101-.5448.2239-.668.3357-.6925.6285-.4388,1.2601-1.0085,1.7526-.5587.483-1.3878.3815-1.4879.3679-.5329-.0725-.6358-.3256-1.3062-.4562-.1637-.0319-.7665-.1493-1.1618,0-.9348.3531-1.526,2.5072-.7941,3.8824,1.0833,2.0355,5.1759,2.5723,6.8382,1.5.1986-.1281.6684-.4765,1.0882-.3235.5139.1873.6514,1.0161.7206,1.4706.5053,3.3203.2847,5.8432.7588,5.9682Z" style="stroke-width: 0px;"/>
  </g>
</svg>