<?xml version="1.0" encoding="UTF-8"?>
<svg id="Layer_2" data-name="Layer 2" xmlns="http://www.w3.org/2000/svg" width="12.1986" height="15.5" viewBox="0 0 12.1986 15.5">
  <g id="svg1">
    <path d="m11.4088,15.5c.1554.0063,1.8701-5.4804-.3-9.6C8.7032,1.3333,2.4928.2862,0,0c.1374.2835.3938.7055.8587.9869.6291.3807,1.0854.1684,2.406.3366.5349.0681,1.1922.1562,1.9706.4706.7447.3007,1.2875.6821,1.8235,1.0588.3157.2219.7113.5021,1.1765.9412,0,0,.6521.6155,1.1765,1.3529,1.1471,1.6133,1.5294,4.3025,1.6971,5.7529.3511,3.0378.2176,4.5966.3,4.6Z" style="stroke-width: 0px;"/>
  </g>
</svg>