<?xml version="1.0" encoding="UTF-8"?>
<svg id="Layer_2" data-name="Layer 2" xmlns="http://www.w3.org/2000/svg" width="7.6767" height="15.5343" viewBox="0 0 7.6767 15.5343">
  <g id="svg1">
    <path d="m6.2307,15.5321c.2458.0354.5312-.3592.653-.6299.2226-.4948.0871-.9948.0355-1.1996-.2964-1.1773.1122-.8213-.2941-3.4706-.2387-1.5562-.3667-2.347-.7941-2.9706-.306-.4465-.6688-.9759-1.3235-1.2059-.4622-.1624-.8007-.0811-1.3824-.3824-.3375-.1748-.6429-.3317-.7353-.6176-.1647-.5095.636-1.1553,1.5294-1.8529C6.5404,1.1558,7.786.4306,7.6692.1291c-.0898-.2318-.9405-.1002-1.5882,0-.8865.1371-2.0564.443-3.4976,1.2411C1.1069,2.1878.3283,2.5954.0869,3.4907c-.2622.9726.1489,1.8166.1852,1.8884.9077,1.7961,3.3567.9599,4.4792,2.7143.2322.3628.397,1.6509.7267,4.2269.2543,1.987.3528,3.1543.7527,3.2119Z" style="stroke-width: 0px;"/>
  </g>
</svg>